<svg xmlns="http://www.w3.org/2000/svg" viewBox="0 0 48 48" width="48px" height="48px">
  <path fill="#EA4335" d="M24 9.5c3.54 0 6.71 1.22 9.19 3.6l6.84-6.84C35.7 2.73 30.24 0 24 0 14.72 0 6.64 5.64 2.72 13.8l7.98 6.19C12.45 13.09 17.74 9.5 24 9.5z"></path>
  <path fill="#34A853" d="M46.98 24.55c0-1.59-.14-3.13-.39-4.63H24v9.16h12.94c-.56 2.84-2.26 5.25-4.81 6.88l7.44 5.8c4.35-4.01 6.81-9.93 6.81-17.21z"></path>
  <path fill="#4A90E2" d="M7.44 28.01c-.44-1.3-.68-2.69-.68-4.11 0-1.42.24-2.81.68-4.11l-7.98-6.19C-.92 16.94-2 20.39-2 24c0 3.61 1.08 7.06 3.06 10.4l7.98-6.39z"></path>
  <path fill="#FBBC05" d="M24 48c6.24 0 11.7-2.06 15.6-5.6l-7.44-5.8c-2.06 1.39-4.67 2.2-8.16 2.2-6.26 0-11.55-3.59-13.3-8.49l-7.98 6.39C6.64 42.36 14.72 48 24 48z"></path>
</svg>
